<svg xmlns="http://www.w3.org/2000/svg" viewBox="0 0 1200 800" width="1200" height="800">
  <defs>
    <linearGradient id="heroGrad" x1="0%" y1="0%" x2="100%" y2="100%">
      <stop offset="0%" style="stop-color:#4338ca"/>
      <stop offset="50%" style="stop-color:#6366f1"/>
      <stop offset="100%" style="stop-color:#8b5cf6"/>
    </linearGradient>
    <linearGradient id="cardGrad" x1="0%" y1="0%" x2="100%" y2="100%">
      <stop offset="0%" style="stop-color:#ffffff"/>
      <stop offset="100%" style="stop-color:#f8fafc"/>
    </linearGradient>
    <linearGradient id="primaryGrad" x1="0%" y1="0%" x2="100%" y2="100%">
      <stop offset="0%" style="stop-color:#6366f1"/>
      <stop offset="100%" style="stop-color:#8b5cf6"/>
    </linearGradient>
    <filter id="cardShadow" x="-20%" y="-20%" width="140%" height="140%">
      <feDropShadow dx="0" dy="4" stdDeviation="8" flood-color="#000" flood-opacity="0.1"/>
    </filter>
    <pattern id="grid" width="20" height="20" patternUnits="userSpaceOnUse">
      <path d="M 20 0 L 0 0 0 20" fill="none" stroke="rgba(255,255,255,0.1)" stroke-width="1"/>
    </pattern>
  </defs>

  <!-- Background -->
  <rect width="1200" height="800" fill="#f8fafc"/>
  
  <!-- Header -->
  <rect x="0" y="0" width="1200" height="70" fill="rgba(255,255,255,0.95)" stroke="#e2e8f0" stroke-width="1"/>
  <text x="60" y="45" font-family="Poppins, sans-serif" font-size="24" font-weight="700" fill="url(#primaryGrad)">🎯 Secret Friend Pro - Analytics</text>

  <!-- Main Analytics Dashboard Card -->
  <rect x="50" y="100" width="1100" height="650" rx="30" fill="url(#cardGrad)" filter="url(#cardShadow)" stroke="#e2e8f0"/>
  <rect x="50" y="100" width="1100" height="4" fill="url(#primaryGrad)"/>
  
  <!-- Card Header -->
  <text x="80" y="140" font-family="Poppins, sans-serif" font-size="24" font-weight="600" fill="#1a1a1a">📊 Analytics Dashboard</text>
  <rect x="1020" y="115" width="100" height="30" rx="15" fill="#ef4444"/>
  <text x="1070" y="133" text-anchor="middle" font-family="Inter, sans-serif" font-size="12" font-weight="600" fill="white">🗑 Limpiar Historial</text>

  <!-- Statistics Grid -->
  <rect x="80" y="170" width="1040" height="100" rx="20" fill="#f8fafc" stroke="#e2e8f0"/>
  
  <!-- Stat Cards -->
  <rect x="100" y="190" width="120" height="60" rx="12" fill="white" stroke="#e2e8f0"/>
  <rect x="100" y="190" width="120" height="3" fill="#6366f1"/>
  <text x="160" y="210" text-anchor="middle" font-family="Poppins, sans-serif" font-size="24" font-weight="700" fill="#6366f1">42</text>
  <text x="160" y="228" text-anchor="middle" font-family="Inter, sans-serif" font-size="10" font-weight="500" fill="#666">TOTAL SORTEOS</text>

  <rect x="240" y="190" width="120" height="60" rx="12" fill="white" stroke="#e2e8f0"/>
  <rect x="240" y="190" width="120" height="3" fill="#8b5cf6"/>
  <text x="300" y="210" text-anchor="middle" font-family="Poppins, sans-serif" font-size="24" font-weight="700" fill="#8b5cf6">8</text>
  <text x="300" y="228" text-anchor="middle" font-family="Inter, sans-serif" font-size="10" font-weight="500" fill="#666">AMIGOS ACTIVOS</text>

  <rect x="380" y="190" width="120" height="60" rx="12" fill="white" stroke="#e2e8f0"/>
  <rect x="380" y="190" width="120" height="3" fill="#3b82f6"/>
  <text x="440" y="210" text-anchor="middle" font-family="Poppins, sans-serif" font-size="24" font-weight="700" fill="#3b82f6">94%</text>
  <text x="440" y="228" text-anchor="middle" font-family="Inter, sans-serif" font-size="10" font-weight="500" fill="#666">SCORE EQUIDAD</text>

  <rect x="520" y="190" width="120" height="60" rx="12" fill="white" stroke="#e2e8f0"/>
  <rect x="520" y="190" width="120" height="3" fill="#10b981"/>
  <text x="580" y="210" text-anchor="middle" font-family="Poppins, sans-serif" font-size="20" font-weight="700" fill="#10b981">Fisher</text>
  <text x="580" y="228" text-anchor="middle" font-family="Inter, sans-serif" font-size="10" font-weight="500" fill="#666">ALGORITMO FAVORITO</text>

  <rect x="660" y="190" width="120" height="60" rx="12" fill="white" stroke="#e2e8f0"/>
  <rect x="660" y="190" width="120" height="3" fill="#f59e0b"/>
  <text x="720" y="210" text-anchor="middle" font-family="Poppins, sans-serif" font-size="24" font-weight="700" fill="#f59e0b">2.3</text>
  <text x="720" y="228" text-anchor="middle" font-family="Inter, sans-serif" font-size="10" font-weight="500" fill="#666">DÍAS PROMEDIO</text>

  <rect x="800" y="190" width="120" height="60" rx="12" fill="white" stroke="#e2e8f0"/>
  <rect x="800" y="190" width="120" height="3" fill="#a855f7"/>
  <text x="860" y="210" text-anchor="middle" font-family="Poppins, sans-serif" font-size="20" font-weight="700" fill="#a855f7">María</text>
  <text x="860" y="228" text-anchor="middle" font-family="Inter, sans-serif" font-size="10" font-weight="500" fill="#666">MÁS AFORTUNADA</text>

  <rect x="940" y="190" width="120" height="60" rx="12" fill="white" stroke="#e2e8f0"/>
  <rect x="940" y="190" width="120" height="3" fill="#ef4444"/>
  <text x="1000" y="210" text-anchor="middle" font-family="Poppins, sans-serif" font-size="24" font-weight="700" fill="#ef4444">+8%</text>
  <text x="1000" y="228" text-anchor="middle" font-family="Inter, sans-serif" font-size="10" font-weight="500" fill="#666">MEJORA EQUIDAD</text>

  <!-- Main Content Grid -->
  <g transform="translate(80, 290)">
    <!-- Left Panel: Historial -->
    <rect x="0" y="0" width="500" height="420" rx="20" fill="white" stroke="#e2e8f0"/>
    <text x="20" y="30" font-family="Poppins, sans-serif" font-size="18" font-weight="600" fill="#1a1a1a">📋 Historial de Sorteos</text>
    
    <!-- History Items -->
    <rect x="20" y="50" width="460" height="50" rx="8" fill="#f8fafc"/>
    <circle cx="45" cy="75" r="8" fill="#6366f1"/>
    <text x="65" y="72" font-family="Inter, sans-serif" font-size="14" font-weight="600" fill="#6366f1">Ana García</text>
    <text x="65" y="85" font-family="Inter, sans-serif" font-size="11" fill="#666">24/07/2025, 14:25 - Fisher-Yates (8 participantes)</text>
    <text x="450" y="78" text-anchor="end" font-family="Inter, sans-serif" font-size="10" fill="#999">#42</text>

    <rect x="20" y="110" width="460" height="50" rx="8" fill="#f8fafc"/>
    <circle cx="45" cy="135" r="8" fill="#8b5cf6"/>
    <text x="65" y="132" font-family="Inter, sans-serif" font-size="14" font-weight="600" fill="#8b5cf6">Carlos López</text>
    <text x="65" y="145" font-family="Inter, sans-serif" font-size="11" fill="#666">23/07/2025, 16:45 - Weighted (8 participantes)</text>
    <text x="450" y="138" text-anchor="end" font-family="Inter, sans-serif" font-size="10" fill="#999">#41</text>

    <rect x="20" y="170" width="460" height="50" rx="8" fill="#f8fafc"/>
    <circle cx="45" cy="195" r="8" fill="#3b82f6"/>
    <text x="65" y="192" font-family="Inter, sans-serif" font-size="14" font-weight="600" fill="#3b82f6">María Rodríguez</text>
    <text x="65" y="205" font-family="Inter, sans-serif" font-size="11" fill="#666">22/07/2025, 10:30 - Simple (7 participantes)</text>
    <text x="450" y="198" text-anchor="end" font-family="Inter, sans-serif" font-size="10" fill="#999">#40</text>

    <rect x="20" y="230" width="460" height="50" rx="8" fill="#f8fafc"/>
    <circle cx="45" cy="255" r="8" fill="#10b981"/>
    <text x="65" y="252" font-family="Inter, sans-serif" font-size="14" font-weight="600" fill="#10b981">Juan Pérez</text>
    <text x="65" y="265" font-family="Inter, sans-serif" font-size="11" fill="#666">21/07/2025, 15:20 - Crypto (8 participantes)</text>
    <text x="450" y="258" text-anchor="end" font-family="Inter, sans-serif" font-size="10" fill="#999">#39</text>

    <rect x="20" y="290" width="460" height="50" rx="8" fill="#f8fafc"/>
    <circle cx="45" cy="315" r="8" fill="#f59e0b"/>
    <text x="65" y="312" font-family="Inter, sans-serif" font-size="14" font-weight="600" fill="#f59e0b">Sofia Martínez</text>
    <text x="65" y="325" font-family="Inter, sans-serif" font-size="11" fill="#666">20/07/2025, 12:15 - Fisher-Yates (8 participantes)</text>
    <text x="450" y="318" text-anchor="end" font-family="Inter, sans-serif" font-size="10" fill="#999">#38</text>

    <!-- Algorithm Usage Stats -->
    <text x="20" y="370" font-family="Inter, sans-serif" font-size="12" font-weight="600" fill="#666">Uso de Algoritmos:</text>
    <rect x="20" y="380" width="80" height="8" rx="4" fill="#e2e8f0"/>
    <rect x="20" y="380" width="45" height="8" rx="4" fill="#6366f1"/>
    <text x="110" y="388" font-family="Inter, sans-serif" font-size="11" fill="#666">Fisher-Yates (18)</text>

    <rect x="220" y="380" width="60" height="8" rx="4" fill="#e2e8f0"/>
    <rect x="220" y="380" width="35" height="8" rx="4" fill="#8b5cf6"/>
    <text x="290" y="388" font-family="Inter, sans-serif" font-size="11" fill="#666">Weighted (12)</text>

    <rect x="370" y="380" width="50" height="8" rx="4" fill="#e2e8f0"/>
    <rect x="370" y="380" width="25" height="8" rx="4" fill="#3b82f6"/>
    <text x="430" y="388" font-family="Inter, sans-serif" font-size="11" fill="#666">Simple (8)</text>
  </g>

  <!-- Right Panel: Charts -->
  <g transform="translate(600, 290)">
    <rect x="0" y="0" width="520" height="420" rx="20" fill="white" stroke="#e2e8f0"/>
    <text x="20" y="30" font-family="Poppins, sans-serif" font-size="18" font-weight="600" fill="#1a1a1a">📈 Métricas Avanzadas</text>
    
    <!-- Distribution Chart -->
    <rect x="20" y="50" width="230" height="160" rx="12" fill="#f8fafc" stroke="#e2e8f0"/>
    <text x="135" y="70" text-anchor="middle" font-family="Inter, sans-serif" font-size="12" font-weight="600" fill="#666">Distribución de Ganadores</text>
    
    <!-- Donut Chart -->
    <circle cx="135" cy="130" r="40" fill="none" stroke="#e2e8f0" stroke-width="12"/>
    <circle cx="135" cy="130" r="40" fill="none" stroke="#6366f1" stroke-width="12" stroke-dasharray="63 188" transform="rotate(-90 135 130)"/>
    <circle cx="135" cy="130" r="40" fill="none" stroke="#8b5cf6" stroke-width="12" stroke-dasharray="50 201" stroke-dashoffset="-63" transform="rotate(-90 135 130)"/>
    <circle cx="135" cy="130" r="40" fill="none" stroke="#3b82f6" stroke-width="12" stroke-dasharray="44 207" stroke-dashoffset="-113" transform="rotate(-90 135 130)"/>
    <circle cx="135" cy="130" r="40" fill="none" stroke="#10b981" stroke-width="12" stroke-dasharray="32 219" stroke-dashoffset="-157" transform="rotate(-90 135 130)"/>
    
    <!-- Center Text -->
    <text x="135" y="125" text-anchor="middle" font-family="Poppins, sans-serif" font-size="16" font-weight="700" fill="#6366f1">42</text>
    <text x="135" y="138" text-anchor="middle" font-family="Inter, sans-serif" font-size="10" fill="#666">Total</text>

    <!-- Timeline Chart -->
    <rect x="270" y="50" width="230" height="160" rx="12" fill="#f8fafc" stroke="#e2e8f0"/>
    <text x="385" y="70" text-anchor="middle" font-family="Inter, sans-serif" font-size="12" font-weight="600" fill="#666">Sorteos por Día</text>
    
    <!-- Line Chart Grid -->
    <g stroke="#e2e8f0" stroke-width="1">
      <line x1="290" y1="80" x2="490" y2="80"/>
      <line x1="290" y1="100" x2="490" y2="100"/>
      <line x1="290" y1="120" x2="490" y2="120"/>
      <line x1="290" y1="140" x2="490" y2="140"/>
      <line x1="290" y1="160" x2="490" y2="160"/>
      <line x1="290" y1="180" x2="490" y2="180"/>
    </g>
    
    <!-- Line Chart Data -->
    <polyline points="290,160 330,140 370,120 410,110 450,100 490,120" 
              fill="none" stroke="#6366f1" stroke-width="3" stroke-linecap="round" stroke-linejoin="round"/>
    <polyline points="290,160 330,140 370,120 410,110 450,100 490,120" 
              fill="rgba(99,102,241,0.1)" stroke="none"/>
    
    <!-- Data Points -->
    <circle cx="290" cy="160" r="4" fill="#6366f1" stroke="white" stroke-width="2"/>
    <circle cx="330" cy="140" r="4" fill="#6366f1" stroke="white" stroke-width="2"/>
    <circle cx="370" cy="120" r="4" fill="#6366f1" stroke="white" stroke-width="2"/>
    <circle cx="410" cy="110" r="4" fill="#6366f1" stroke="white" stroke-width="2"/>
    <circle cx="450" cy="100" r="4" fill="#6366f1" stroke="white" stroke-width="2"/>
    <circle cx="490" cy="120" r="4" fill="#6366f1" stroke="white" stroke-width="2"/>

    <!-- Insights Panel -->
    <rect x="20" y="230" width="480" height="170" rx="12" fill="#f8fafc" stroke="#e2e8f0"/>
    <text x="30" y="250" font-family="Inter, sans-serif" font-size="12" font-weight="600" fill="#666">🔍 Insights Automatizados</text>
    
    <rect x="30" y="260" width="460" height="40" rx="8" fill="white" stroke="#10b981"/>
    <text x="45" y="275" font-family="Inter, sans-serif" font-size="11" fill="#10b981">✅ Excelente Equidad</text>
    <text x="45" y="290" font-family="Inter, sans-serif" font-size="10" fill="#666">La distribución actual muestra un 94% de equidad - muy balanceada</text>

    <rect x="30" y="310" width="460" height="40" rx="8" fill="white" stroke="#6366f1"/>
    <text x="45" y="325" font-family="Inter, sans-serif" font-size="11" fill="#6366f1">📊 Tendencia Positiva</text>
    <text x="45" y="340" font-family="Inter, sans-serif" font-size="10" fill="#666">La equidad ha mejorado un 8% en los últimos 10 sorteos</text>

    <rect x="30" y="360" width="460" height="30" rx="8" fill="white" stroke="#f59e0b"/>
    <text x="45" y="375" font-family="Inter, sans-serif" font-size="11" fill="#f59e0b">⚡ Recomendación</text>
    <text x="45" y="387" font-family="Inter, sans-serif" font-size="10" fill="#666">Considera usar el algoritmo Weighted para mayor equidad a largo plazo</text>
  </g>
</svg>